# xmcd CD database file
#
# Track frame offsets:
#	187
#	10517
#	31770
#	52340
#
# Disc length: 933 seconds
#
# Revision: 0
# Processed by: cddbd v1.5.1PL0 Copyright (c) Steve Scherf et al.
# Submitted via: CDex 1.51
#
DISCID=2603a304
DTITLE=Tokyo No.1 Soul Set - ロマンティック伝説
DYEAR=1994
DGENRE=JPop
TTITLE0=グランプリ
TTITLE1=ロマンティック伝説
TTITLE2=地図の隠されたトランプ
TTITLE3=やぁ、調子はどうだい
EXTD=YEAR: 1994
EXTT0=
EXTT1=
EXTT2=
EXTT3=
PLAYORDER=
